<svg id="Capa_1" data-name="Capa 1" xmlns="http://www.w3.org/2000/svg" viewBox="0 0 48 48"><defs><style>.cls-1,.cls-3{fill:none;}.cls-1{stroke:#eee;}.cls-2,.cls-6{fill:#fff;}.cls-2,.cls-4,.cls-7{fill-rule:evenodd;}.cls-4{fill:#ffe1bd;}.cls-5,.cls-7{fill:#e2690e;}</style></defs><g id="Symbols"><g id="credito"><g id="Group-60"><g id="icon"><path id="Oval" class="cls-1" d="M24,47.5A23.5,23.5,0,1,0,.5,24,23.5,23.5,0,0,0,24,47.5Z"/><g id="Group"><path id="Fill-10" class="cls-2" d="M14,24.5a.5.5,0,0,1,.5-.5h3a.5.5,0,0,1,.5.5.5.5,0,0,1-.5.5h-3a.5.5,0,0,1-.5-.5"/><path id="Fill-11" class="cls-2" d="M19,24.5a.5.5,0,0,1,.5-.5h3a.5.5,0,0,1,.5.5.5.5,0,0,1-.5.5h-3a.5.5,0,0,1-.5-.5"/><path id="Fill-12" class="cls-2" d="M24,24.5a.5.5,0,0,1,.5-.5h3a.5.5,0,0,1,.5.5.5.5,0,0,1-.5.5h-3a.5.5,0,0,1-.5-.5"/><path id="Fill-13" class="cls-2" d="M30,24.5a.5.5,0,0,1,.5-.5h3a.5.5,0,0,1,.5.5.5.5,0,0,1-.5.5h-3a.5.5,0,0,1-.5-.5"/></g></g><g id="icono_tc" data-name="icono tc"><rect id="Rectangle-51" class="cls-3" x="12" y="12" width="24" height="24"/><g id="Group-2"><path id="Rectangle-path" class="cls-4" d="M13.58,16H34.42A1.58,1.58,0,0,1,36,17.58V30.42h0A1.58,1.58,0,0,1,34.42,32H13.58A1.58,1.58,0,0,1,12,30.42V17.58h0A1.58,1.58,0,0,1,13.58,16Z"/><rect id="Rectangle-path-2" data-name="Rectangle-path" class="cls-5" x="12" y="19" width="24" height="3"/><rect id="Rectangle-path-3" data-name="Rectangle-path" class="cls-6" x="14" y="23" width="20" height="3"/><path id="Rectangle-path-4" data-name="Rectangle-path" class="cls-7" d="M14.5,29h9a.5.5,0,0,1,.5.5h0a.5.5,0,0,1-.5.5h-9a.5.5,0,0,1-.5-.5h0A.5.5,0,0,1,14.5,29Z"/><path id="Rectangle-path-5" data-name="Rectangle-path" class="cls-7" d="M14.5,27h14a.5.5,0,0,1,.5.5h0a.5.5,0,0,1-.5.5h-14a.5.5,0,0,1-.5-.5h0A.5.5,0,0,1,14.5,27Z"/></g></g></g></g></g></svg>